<svg width="699" height="147" viewBox="0 0 699 147" fill="none" xmlns="http://www.w3.org/2000/svg">
<path d="M89.4046 31.9495C90.3671 47.3945 84.2487 59.0297 71.0494 66.8552C72.5618 68.1594 73.9367 69.601 75.1741 71.1798C81.5676 79.4171 84.9361 88.8557 85.2799 99.4956C85.6236 110.136 82.7362 119.814 76.6178 128.532C64.381 143.84 48.7412 148.954 29.6984 143.874C20.9676 140.991 13.8524 136.22 8.35268 129.562C2.85297 122.835 0.0687464 114.769 0 105.365C0.274985 101.315 1.9249 98.6032 4.94974 97.2303C8.04332 95.8575 11.1025 95.8575 14.1274 97.2303C17.1522 98.6032 18.7678 101.315 18.974 105.365C19.249 112.641 22.1707 118.201 27.7392 122.045C33.3764 125.889 39.5635 127.434 46.3007 126.679C53.1066 125.855 58.4 122.148 62.1811 115.558C65.0684 109.724 66.3059 103.683 65.8934 97.4363C65.5497 91.121 62.9717 85.6981 58.1594 81.1675C52.4535 76.4311 45.9569 73.5137 38.6698 72.4154C35.92 72.2094 33.1701 71.9692 30.4203 71.6946C30.3515 71.6946 30.2828 71.6946 30.214 71.6946C30.0765 71.626 29.939 71.5916 29.8015 71.5916C26.0892 70.7679 23.5456 68.8802 22.1707 65.9285C20.8645 62.9768 20.8301 60.128 22.0676 57.3822C23.305 54.5678 25.883 52.989 29.8015 52.6458C29.8703 52.6458 29.9047 52.6458 29.9047 52.6458C29.9047 52.6458 29.939 52.6458 30.0078 52.6458C30.0765 52.6458 30.1109 52.6458 30.1109 52.6458C30.1797 52.6458 30.2484 52.6458 30.3171 52.6458C33.892 52.6458 37.5699 52.9547 41.3509 53.5725C48.2256 53.9843 54.5502 53.1606 60.3249 51.1013C66.0996 49.0419 69.3651 44.5801 70.1213 37.7156C70.74 29.4783 67.1996 24.2613 59.5 22.0647C56.2001 21.1723 52.9003 21.1037 49.6005 21.8587C46.3007 22.5452 43.6196 24.3986 41.5572 27.4189C39.0823 30.7139 36.1606 32.1897 32.792 31.8465C29.4234 31.4346 26.7767 29.8901 24.8518 27.213C22.9957 24.5359 23.0644 21.4126 25.058 17.843C31.039 9.33113 38.8073 4.42305 48.3631 3.11881C57.9876 1.74592 66.8558 3.565 74.9679 8.57604C83.08 13.5871 87.8922 21.3782 89.4046 31.9495Z" fill="url(#paint0_linear_72_678)"/>
<path d="M123.331 144.492C117.763 145.796 112.332 145.522 107.038 143.668C101.745 141.746 97.5511 138.28 94.4575 133.269C91.9139 128.601 90.6421 123.658 90.6421 118.441C90.5733 113.156 91.0546 107.973 92.0858 102.894C95.0418 88.5468 98.7885 74.3717 103.326 60.3683C104.219 57.5539 105.079 54.7394 105.904 51.925C107.279 48.0809 109.616 45.9186 112.916 45.4381C116.284 44.889 119.241 45.6784 121.784 47.8063C124.397 49.9343 125.221 52.989 124.259 56.9704C123.503 59.5102 122.747 62.0501 121.99 64.5899C118.141 76.6027 114.772 88.7528 111.885 101.04C111.885 101.109 111.85 101.177 111.782 101.246C110.682 105.777 109.96 110.273 109.616 114.735C109.547 116.382 109.582 118.064 109.719 119.78C109.719 119.78 109.719 119.849 109.719 119.986C109.788 120.055 109.822 120.192 109.822 120.398C109.891 120.604 109.96 120.81 110.029 121.016C110.097 121.359 110.166 121.702 110.235 122.045C110.304 122.32 110.338 122.526 110.338 122.663C110.407 122.663 110.441 122.697 110.441 122.766C110.51 122.835 110.544 122.903 110.544 122.972C110.613 123.109 110.682 123.247 110.75 123.384C110.888 123.453 110.991 123.555 111.06 123.693C111.128 123.83 111.197 123.933 111.266 124.002C111.335 124.07 111.369 124.139 111.369 124.208C111.369 124.208 111.335 124.173 111.266 124.105C111.541 124.379 111.85 124.654 112.194 124.928C112.194 124.997 112.228 125.031 112.297 125.031C112.366 125.1 112.469 125.169 112.607 125.237C113.775 125.992 114.806 126.439 115.7 126.576C116.663 126.644 117.9 126.404 119.412 125.855C124.775 123.59 129.243 119.78 132.818 114.426C136.393 109.003 139.315 103.717 141.583 98.5689C143.508 94.9994 146.052 93.3863 149.214 93.7295C152.445 94.0041 155.092 95.5486 157.154 98.363C159.217 101.109 159.492 104.404 157.979 108.248C154.679 115.799 150.142 123.144 144.367 130.283C138.661 137.422 131.649 142.158 123.331 144.492ZM123.331 28.4486C120.719 28.4486 118.484 27.5219 116.628 25.6685C114.772 23.7465 113.844 21.5155 113.844 18.9757C113.844 18.8384 113.844 18.7011 113.844 18.5638C113.844 15.9553 114.772 13.7244 116.628 11.871C118.484 9.94893 120.719 8.98791 123.331 8.98791C125.943 8.98791 128.178 9.94893 130.034 11.871C131.89 13.7244 132.818 15.9553 132.818 18.5638C132.818 18.7011 132.818 18.8384 132.818 18.9757C132.818 21.5155 131.89 23.7465 130.034 25.6685C128.178 27.5219 125.943 28.4486 123.331 28.4486Z" fill="url(#paint1_linear_72_678)"/>
<path d="M268.73 128.429C259.724 141.884 247.109 148.027 230.885 146.86C223.804 146.105 217.135 144.012 210.879 140.579C204.692 137.078 199.983 131.999 196.752 125.34C191.802 113.327 191.94 101.109 197.165 88.6841C202.458 76.2595 212.22 69.8755 226.451 69.5323C230.507 69.9442 233.222 71.7289 234.597 74.8866C235.972 77.9756 235.972 81.0303 234.597 84.0506C233.222 87.0023 230.507 88.5125 226.451 88.5811C221.913 88.5811 218.407 90.3316 215.932 93.8324C213.526 97.2647 212.186 101.143 211.911 105.468C211.636 110.067 212.529 114.288 214.592 118.133C216.723 121.977 220.091 124.722 224.697 126.37C230.61 128.292 236.212 128.498 241.506 126.988C246.868 125.478 250.959 121.839 253.777 116.073C257.696 105.639 256.527 95.7888 250.271 86.5218C246.834 81.7167 242.812 76.8429 238.206 71.9005C232.294 65.6539 227.069 59.0297 222.532 52.028C217.995 45.0262 216.001 37.441 216.551 29.2723C218.957 14.6511 226.141 5.7273 238.103 2.50101C250.065 -0.793927 261.614 1.74592 272.751 10.1205C273.095 9.64003 273.473 9.19384 273.885 8.78197C274.023 8.64468 274.16 8.5074 274.298 8.37011C276.085 6.44806 278.285 5.52136 280.898 5.59001C283.579 5.65865 285.847 6.58535 287.703 8.37011C289.628 10.3608 290.522 12.5917 290.385 15.0629C290.316 17.5341 289.422 19.7651 287.703 21.7558C286.329 23.3346 284.954 24.9134 283.579 26.4922C279.041 31.7092 274.504 36.8919 269.967 42.0402C268.111 43.9623 265.877 44.889 263.264 44.8203C260.652 44.7517 258.383 43.825 256.458 42.0402C254.602 40.0495 253.708 37.8186 253.777 35.3474C253.846 32.8762 254.74 30.6452 256.458 28.6545C257.696 27.213 258.933 25.8058 260.171 24.4329C256.115 21.3439 251.474 19.7651 246.249 19.6964C241.093 19.5592 237.656 22.3049 235.938 27.9338C235.113 32.6702 236.075 37.2694 238.825 41.7313C241.575 46.1932 244.565 50.1746 247.796 53.6754C248.14 54.0873 248.484 54.4992 248.827 54.911C250.202 56.4899 251.577 58.0687 252.952 59.6475C260.652 67.5416 266.839 76.3968 271.514 86.2129C277.151 100.766 276.223 114.838 268.73 128.429Z" fill="url(#paint2_linear_72_678)"/>
<path d="M325.033 146.14C315.683 146.277 307.709 143.6 301.109 138.108C294.578 132.548 290.9 125.031 290.075 115.558C289.663 103.065 291.863 91.018 296.675 79.4171C298.875 73.651 301.693 67.9535 305.131 62.3246C308.568 56.6958 313.002 52.1996 318.433 48.836C322.902 46.2962 327.748 44.9919 332.973 44.9233C338.266 44.8546 342.907 46.6051 346.894 50.1746C351.088 54.4992 352.978 59.3386 352.566 64.6929C352.222 70.0471 350.606 75.1268 347.719 79.9319C345.45 83.2955 342.632 84.8057 339.263 84.4625C335.963 84.1193 333.317 82.6091 331.323 79.9319C329.398 77.1862 329.364 73.9942 331.22 70.356C331.289 70.2188 331.357 70.1158 331.426 70.0471C332.526 68.3997 333.317 66.6149 333.798 64.6929C333.798 64.4869 333.798 64.3153 333.798 64.178C333.66 64.1094 333.454 64.0408 333.179 63.9721C332.973 63.9035 332.698 63.8691 332.354 63.8691C329.673 64.1437 327.233 65.4823 325.033 67.8848C322.902 70.2188 321.114 72.6556 319.671 75.1955C316.027 81.3048 312.968 88.5468 310.493 96.9214C308.087 105.296 307.984 112.813 310.184 119.471C310.665 120.775 311.49 122.045 312.658 123.281C313.896 124.517 315.099 125.34 316.268 125.752C320.599 127.468 324.93 127.708 329.261 126.473C335.998 124.414 341.566 120.878 345.966 115.867C350.106 111.161 354.471 105.289 357.222 99.4824C357.44 99.0223 357.648 98.5625 357.845 98.1038C359.014 95.7013 359.75 94.9994 362.362 94.4502C365.043 93.9011 367.484 94.21 369.684 95.3769C372.09 96.8871 373.533 98.8435 374.015 101.246C374.496 103.58 374.186 105.983 373.086 108.454C368.755 118.339 362.465 126.919 354.216 134.195C345.966 141.472 336.238 145.453 325.033 146.14ZM333.798 63.9721C333.798 63.7662 333.764 63.6289 333.695 63.5602C333.695 63.423 333.695 63.3886 333.695 63.4573C333.695 63.4573 333.695 63.4916 333.695 63.5602C333.695 63.6289 333.729 63.7662 333.798 63.9721Z" fill="url(#paint3_linear_72_678)"/>
<path d="M366.281 138.005C364.562 141.643 362.053 143.737 358.753 144.286C355.453 144.835 352.6 144.115 350.194 142.124C347.788 140.133 347.032 137.078 347.925 132.96C349.644 126.988 351.363 120.981 353.081 114.941C363.325 78.8336 373.568 42.761 383.811 6.72264C385.186 2.87855 387.523 0.716251 390.823 0.23574C394.192 -0.313416 397.148 0.475995 399.691 2.60397C402.235 4.73195 403.06 7.78663 402.166 11.768C399.898 19.9367 397.595 28.1397 395.257 36.377C393.401 42.761 391.579 49.1449 389.792 55.5288C390.961 54.4305 392.164 53.3322 393.401 52.2339C398.97 47.6347 405.019 45.1979 411.55 44.9233C418.081 44.5801 424.062 47.0513 429.493 52.3369C432.999 56.181 434.889 60.4369 435.164 65.1047C435.508 69.7039 434.924 74.4061 433.411 79.2112C431.762 84.4968 429.905 89.7481 427.843 94.9651C425.987 99.7015 424.268 104.472 422.687 109.277C421.037 113.945 420.143 118.304 420.006 122.354C420.006 122.354 420.006 122.423 420.006 122.56C420.006 122.629 420.006 122.732 420.006 122.869C420.006 123.075 420.006 123.281 420.006 123.487C420.075 123.693 420.109 123.864 420.109 124.002C420.109 124.139 420.109 124.208 420.109 124.208C420.109 124.208 420.075 124.105 420.006 123.899C420.143 124.448 420.281 124.963 420.418 125.443C420.418 125.306 420.418 125.272 420.418 125.34C420.487 125.34 420.556 125.375 420.625 125.443C420.693 125.512 420.762 125.581 420.831 125.649C420.9 125.718 420.934 125.786 420.934 125.855C420.934 125.924 420.9 125.958 420.831 125.958C420.762 125.889 420.625 125.752 420.418 125.546C420.625 125.752 420.728 125.889 420.728 125.958C420.934 126.027 421.175 126.164 421.45 126.37C422.206 126.782 422.893 127.056 423.512 127.194C424.199 127.331 424.646 127.365 424.853 127.297C425.815 127.091 426.606 126.85 427.224 126.576C427.843 126.301 428.634 125.855 429.596 125.237C432.758 122.835 435.543 119.883 437.949 116.382C439.736 113.774 441.42 111.062 443.002 108.248C445.064 104.198 447.47 100.491 450.22 97.1274C453.107 94.1757 456.063 93.2833 459.088 94.4502C462.182 95.5486 464.347 97.7109 465.585 100.937C466.822 104.095 466.203 107.287 463.729 110.513C463.866 110.307 464.038 110.136 464.244 109.998C464.519 109.655 464.691 109.415 464.76 109.277C464.897 109.14 464.966 109.106 464.966 109.174C464.966 109.174 464.932 109.209 464.863 109.277C464.725 109.483 464.554 109.724 464.347 109.998C464.141 110.204 463.969 110.444 463.832 110.719C463.488 111.337 463.144 111.955 462.801 112.572C462.526 113.053 462.251 113.499 461.976 113.911C460.257 117 458.435 120.02 456.51 122.972C453.485 127.64 449.979 132.033 445.992 136.152C442.005 140.27 437.33 143.256 431.968 145.11C426.537 146.689 421.14 146.551 415.778 144.698C410.416 142.776 406.325 139.275 403.507 134.195C400.413 127.262 399.794 119.952 401.651 112.263C403.507 104.507 406.085 96.9214 409.385 89.5079C411.653 84.0849 413.544 78.9709 415.056 74.1658C415.4 72.7929 415.744 71.42 416.087 70.0471C416.087 69.9785 416.087 69.8069 416.087 69.5323C416.156 69.3264 416.19 69.1204 416.19 68.9145C416.259 68.7086 416.294 68.537 416.294 68.3997C416.294 68.1937 416.294 68.0908 416.294 68.0908C416.362 68.0908 416.397 68.1937 416.397 68.3997C416.465 67.6446 416.465 66.9238 416.397 66.2374C416.397 66.1687 416.397 66.1344 416.397 66.1344C415.778 65.448 415.056 64.8645 414.231 64.384C413.544 63.9721 412.959 63.6975 412.478 63.5602C411.997 63.423 411.413 63.4916 410.725 63.7662C406.394 65.345 402.647 68.2624 399.485 72.5183C396.323 76.7057 393.573 80.9273 391.236 85.1832C390.754 86.0756 390.273 86.8994 389.792 87.6544C384.292 97.402 379.377 107.458 375.046 117.824C371.815 125.1 368.893 131.827 366.281 138.005ZM420.418 125.546C420.418 125.546 420.418 125.512 420.418 125.443C420.35 125.443 420.315 125.443 420.315 125.443C420.315 125.443 420.35 125.478 420.418 125.546Z" fill="url(#paint4_linear_72_678)"/>
<path d="M539.006 101.143C540.587 97.3676 543.062 95.2397 546.43 94.7591C549.868 94.2786 552.824 95.1024 555.299 97.2303C557.842 99.2897 558.53 102.276 557.361 106.188C550.968 122.732 538.937 131.999 521.269 133.989C517.282 134.195 513.432 133.612 509.72 132.239C501.058 143.016 489.371 146.792 474.659 143.565C462.01 139.378 454.07 131.827 450.839 120.913C447.608 109.998 447.47 98.5346 450.426 86.5218C453.314 74.509 458.813 64.0064 466.925 55.014C475.037 45.9529 485.899 42.8983 499.511 45.85C512.16 49.9 520.204 57.4166 523.641 68.3997C527.078 79.3828 527.319 90.8464 524.363 102.791C523.4 106.841 522.06 110.925 520.341 115.044C521.441 114.975 522.507 114.769 523.538 114.426C530.963 112.572 536.118 108.145 539.006 101.143ZM481.259 125.649C486.896 126.404 491.502 124.825 495.077 120.913C491.021 114.803 490.54 107.87 493.633 100.113C494.802 97.8482 496.624 96.4066 499.099 95.7888C501.642 95.171 504.048 95.4113 506.317 96.5096C507.829 89.7138 507.864 82.9866 506.42 76.3281C505.045 69.6696 500.508 65.4823 492.808 63.7662C485.452 63.217 479.918 66.2031 476.206 72.7243C472.562 79.1769 470.088 85.4578 468.781 91.5672C466.994 98.363 466.65 105.262 467.75 112.263C468.919 119.265 473.422 123.727 481.259 125.649Z" fill="url(#paint5_linear_72_678)"/>
<path d="M633.159 101.218C634.74 97.4428 636.694 95.2397 640.063 94.7591C643.5 94.2786 646.456 95.1024 648.931 97.2303C651.475 99.2897 652.162 102.276 650.994 106.188C644.6 122.732 632.57 131.999 614.902 133.989C610.915 134.195 607.065 133.612 603.352 132.239C594.69 143.016 583.003 146.792 568.292 143.565C555.642 139.378 547.702 131.827 544.471 120.913C541.24 109.998 541.103 98.5346 544.059 86.5218C546.946 74.509 552.446 64.0064 560.558 55.014C568.67 45.9529 579.532 42.8983 593.144 45.85C605.793 49.9 613.836 57.4166 617.274 68.3997C620.711 79.3828 620.951 90.8464 617.995 102.791C617.033 106.841 615.692 110.925 613.974 115.044C615.074 114.975 616.139 114.769 617.17 114.426C624.595 112.572 630.271 108.22 633.159 101.218ZM574.891 125.649C580.529 126.404 585.135 124.825 588.709 120.913C584.653 114.803 584.172 107.87 587.266 100.113C588.434 97.8482 590.256 96.4066 592.731 95.7888C595.275 95.171 597.681 95.4113 599.949 96.5096C601.462 89.7138 601.496 82.9866 600.053 76.3281C598.678 69.6696 594.14 65.4823 586.441 63.7662C579.085 63.217 573.551 66.2031 569.839 72.7243C566.195 79.1769 563.72 85.4578 562.414 91.5672C560.627 98.363 560.283 105.262 561.383 112.263C562.551 119.265 567.054 123.727 574.891 125.649Z" fill="url(#paint6_linear_72_678)"/>
<path d="M644.291 142.433C636.316 137.696 632.123 130.66 631.71 121.325C631.848 109.792 633.704 98.3973 637.279 87.1396C637.691 85.6981 638.069 84.2565 638.413 82.815C642.744 66.3403 647.178 49.9 651.715 33.494C654.259 24.5702 656.734 15.6464 659.14 6.72264C660.446 2.80991 662.749 0.613284 666.049 0.132773C669.349 -0.347738 672.271 0.475995 674.814 2.60397C677.427 4.66331 678.32 7.71798 677.495 11.768C675.021 20.7604 672.546 29.7529 670.071 38.7453C666.015 53.3665 662.027 67.9878 658.109 82.6091C656.184 89.8167 654.431 97.0931 652.85 104.438C652.231 106.978 651.715 109.586 651.303 112.263C651.234 112.881 651.2 113.225 651.2 113.293C651.131 113.43 651.097 113.705 651.097 114.117C650.959 115.009 650.891 115.902 650.891 116.794C650.753 118.579 650.753 120.364 650.891 122.148C650.891 122.286 650.925 122.423 650.994 122.56C651.062 122.903 651.131 123.212 651.2 123.487C651.131 123.35 651.131 123.281 651.2 123.281C651.269 123.281 651.337 123.35 651.406 123.487C651.475 123.624 651.544 123.796 651.612 124.002C651.75 124.139 651.819 124.276 651.819 124.414C651.887 124.482 651.887 124.517 651.819 124.517C651.75 124.517 651.612 124.414 651.406 124.208C651.681 124.482 651.956 124.757 652.231 125.031C653.881 126.13 655.497 126.61 657.078 126.473C658.659 126.336 660.584 125.512 662.852 124.002C671.308 117.275 677.495 108.797 681.414 98.5689C683.339 94.9994 685.917 93.3863 689.148 93.7295C692.379 94.0041 695.026 95.5486 697.088 98.363C699.151 101.109 699.425 104.404 697.913 108.248C694.957 114.7 690.798 121.359 685.436 128.223C680.142 135.019 673.955 140.099 666.874 143.462C659.862 146.826 652.334 146.483 644.291 142.433Z" fill="url(#paint7_linear_72_678)"/>
<path d="M110.693 46.2042L75.8465 73.5678C76.7357 73.5678 81.0336 82.0363 83.0714 86.2706L100.3 75.777L110.693 46.2042Z" fill="url(#paint8_linear_72_678)"/>
<path d="M273.339 111.048H273.308C272.05 113.916 264.192 124.744 265.917 127.391C267.642 130.038 286.565 125.207 292.315 122.119L291.259 103.141C284.816 111.049 275.896 111.049 273.339 111.048Z" fill="url(#paint9_linear_72_678)"/>
<path d="M82.221 86.5797L75.9922 73.4992L107.759 48.584L98.4159 76.9251L82.221 86.5797Z" fill="url(#paint10_linear_72_678)"/>
<path d="M290.573 104.021C286.213 108.693 280.296 111.185 274.69 110.873C274.69 115.358 270.537 124.265 268.461 128.002C272.697 128.999 285.902 124.992 291.819 122.708C291.321 122.21 290.573 109.939 290.573 104.021Z" fill="url(#paint11_linear_72_678)"/>
<path d="M509.828 132.052C503.599 130.806 497.371 124.058 495.191 120.84C490.519 125.511 485.847 125.823 484.602 125.823C488.131 130.806 497.059 140.772 499.551 140.772C500.796 140.772 507.96 135.166 509.828 132.052Z" fill="url(#paint12_linear_72_678)"/>
<path d="M603.262 132.052C597.033 130.806 590.804 124.058 588.624 120.84C583.953 125.511 579.281 125.823 578.035 125.823C581.565 130.806 590.493 140.772 592.984 140.772C594.23 140.772 601.393 135.166 603.262 132.052Z" fill="url(#paint13_linear_72_678)"/>
<path d="M632.849 128.314C628.489 130.39 618.772 134.418 614.785 133.92L618.522 113.987C620.391 113.676 625.125 111.994 629.111 107.759C630.471 106.037 633.064 102.432 633.867 100.218C633.945 99.9032 634.021 99.6132 634.094 99.3496C634.063 99.6029 633.984 99.8958 633.867 100.218C632.627 105.237 630.973 116.592 632.849 128.314Z" fill="url(#paint14_linear_72_678)"/>
<defs>
<linearGradient id="paint0_linear_72_678" x1="-1.78127e-06" y1="74" x2="751.5" y2="74" gradientUnits="userSpaceOnUse">
<stop stop-color="#4757FF"/>
<stop offset="1" stop-color="#1E96FC"/>
</linearGradient>
<linearGradient id="paint1_linear_72_678" x1="-1.78127e-06" y1="74" x2="751.5" y2="74" gradientUnits="userSpaceOnUse">
<stop stop-color="#4757FF"/>
<stop offset="1" stop-color="#1E96FC"/>
</linearGradient>
<linearGradient id="paint2_linear_72_678" x1="-1.78127e-06" y1="74" x2="751.5" y2="74" gradientUnits="userSpaceOnUse">
<stop stop-color="#4757FF"/>
<stop offset="1" stop-color="#1E96FC"/>
</linearGradient>
<linearGradient id="paint3_linear_72_678" x1="-1.78127e-06" y1="74" x2="751.5" y2="74" gradientUnits="userSpaceOnUse">
<stop stop-color="#4757FF"/>
<stop offset="1" stop-color="#1E96FC"/>
</linearGradient>
<linearGradient id="paint4_linear_72_678" x1="-1.78127e-06" y1="74" x2="751.5" y2="74" gradientUnits="userSpaceOnUse">
<stop stop-color="#4757FF"/>
<stop offset="1" stop-color="#1E96FC"/>
</linearGradient>
<linearGradient id="paint5_linear_72_678" x1="-1.78127e-06" y1="74" x2="751.5" y2="74" gradientUnits="userSpaceOnUse">
<stop stop-color="#4757FF"/>
<stop offset="1" stop-color="#1E96FC"/>
</linearGradient>
<linearGradient id="paint6_linear_72_678" x1="-1.78127e-06" y1="74" x2="751.5" y2="74" gradientUnits="userSpaceOnUse">
<stop stop-color="#4757FF"/>
<stop offset="1" stop-color="#1E96FC"/>
</linearGradient>
<linearGradient id="paint7_linear_72_678" x1="-1.78127e-06" y1="74" x2="751.5" y2="74" gradientUnits="userSpaceOnUse">
<stop stop-color="#4757FF"/>
<stop offset="1" stop-color="#1E96FC"/>
</linearGradient>
<linearGradient id="paint8_linear_72_678" x1="-1.78127e-06" y1="74" x2="751.5" y2="74" gradientUnits="userSpaceOnUse">
<stop stop-color="#4757FF"/>
<stop offset="1" stop-color="#1E96FC"/>
</linearGradient>
<linearGradient id="paint9_linear_72_678" x1="-1.78127e-06" y1="74" x2="751.5" y2="74" gradientUnits="userSpaceOnUse">
<stop stop-color="#4757FF"/>
<stop offset="1" stop-color="#1E96FC"/>
</linearGradient>
<linearGradient id="paint10_linear_72_678" x1="99.9731" y1="58.8615" x2="81.9096" y2="79.4166" gradientUnits="userSpaceOnUse">
<stop stop-opacity="0.19"/>
<stop offset="1" stop-opacity="0"/>
</linearGradient>
<linearGradient id="paint11_linear_72_678" x1="290.885" y1="112.119" x2="272.821" y2="118.971" gradientUnits="userSpaceOnUse">
<stop stop-opacity="0.1"/>
<stop offset="1" stop-opacity="0"/>
</linearGradient>
<linearGradient id="paint12_linear_72_678" x1="508.819" y1="127.527" x2="494.237" y2="137.793" gradientUnits="userSpaceOnUse">
<stop stop-opacity="0.15"/>
<stop offset="1" stop-opacity="0"/>
</linearGradient>
<linearGradient id="paint13_linear_72_678" x1="602.253" y1="127.527" x2="587.67" y2="137.793" gradientUnits="userSpaceOnUse">
<stop stop-opacity="0.15"/>
<stop offset="1" stop-opacity="0"/>
</linearGradient>
<linearGradient id="paint14_linear_72_678" x1="633.322" y1="110.961" x2="617.021" y2="114.526" gradientUnits="userSpaceOnUse">
<stop stop-opacity="0.1"/>
<stop offset="1" stop-opacity="0"/>
</linearGradient>
</defs>
</svg>
